<svg width="187" height="56" fill="none" xmlns="http://www.w3.org/2000/svg"><path id="MyBiKE" d="M114.45 8.35c1.02.91 2.34 1.36 3.93 1.36 1.56 0 2.84-.45 3.84-1.36 1.02-.95 1.54-2.1 1.54-3.47 0-1.4-.52-2.56-1.54-3.47-1-.94-2.28-1.41-3.84-1.41-1.59 0-2.91.47-3.93 1.41-1 .91-1.49 2.07-1.49 3.47 0 1.37.49 2.52 1.49 3.47ZM42.3 5.2v36.87h-9.1V19.96l-8.35 22.11H17.5L9.1 19.9v22.17H0V5.2h10.74l10.49 25.53L31.61 5.2H42.3Zm60.29 17.96c2.17.46 3.9 1.53 5.22 3.21 1.31 1.64 1.97 3.53 1.97 5.67 0 3.08-1.1 5.53-3.3 7.35-2.17 1.79-5.2 2.68-9.1 2.68h-17.4V5.2h16.81q5.7 0 8.89 2.57c2.16 1.72 3.24 4.04 3.24 6.99 0 2.17-.58 3.97-1.75 5.41-1.14 1.43-2.66 2.43-4.58 2.99Zm47.32 18.91-12.56-16.28v16.28h-9.1V5.2h9.1v16.18L149.81 5.2h10.69l-14.47 18.07 15 18.8h-11.12Zm23.3-22.22v-7.46H187V5.2h-22.89v36.87H187v-7.19h-13.79v-8.09h12.19v-6.94h-12.19Zm-84.14.27h5.97c1.48 0 2.62-.32 3.4-.95.82-.67 1.22-1.63 1.22-2.89 0-1.26-.4-2.22-1.22-2.89-.78-.66-1.92-1-3.4-1h-5.97v7.73ZM59.31 56l18.62-43.24h-9.84l-6.82 18.33-6.86-18.33H44.25l12.08 28.32L49.51 56h9.8Zm63.6-13.93V12.76h-9.1v29.31h9.1Zm-27.13-7.25c1.53 0 2.7-.33 3.51-.99.85-.7 1.28-1.7 1.28-3 0-1.29-.44-2.31-1.33-3.05-.85-.73-2.04-1.1-3.57-1.1h-6.6v8.14h6.71Z" fill="#1D1D1D" fill-opacity="1" fill-rule="evenodd"/></svg>